<?xml version="1.0" encoding="UTF-8"?>
<svg width="68px" height="68px" viewBox="0 0 68 68" version="1.1" xmlns="http://www.w3.org/2000/svg" xmlns:xlink="http://www.w3.org/1999/xlink">
    <!-- Generator: Sketch 52.6 (67491) - http://www.bohemiancoding.com/sketch -->
    <title>scrolldown`</title>
    <desc>Created with Sketch.</desc>
    <g id="Page-1" stroke="none" stroke-width="1" fill="none" fill-rule="evenodd">
        <g id="jelonki-lp-main-pl" transform="translate(-926.000000, -869.000000)">
            <g id="#HERO" transform="translate(-5.000000, -198.000000)">
                <g id="scrolldown" transform="translate(931.000000, 1067.000000)">
                    <circle id="Oval" fill="#FFFFFF" cx="34" cy="34" r="34"></circle>
                    <path d="M34,64 C17.4314575,64 4,50.5685425 4,34 C4,17.4314575 17.4314575,4 34,4 C50.5685425,4 64,17.4314575 64,34 C64,50.5685425 50.5685425,64 34,64 Z M34,61 C48.9116882,61 61,48.9116882 61,34 C61,19.0883118 48.9116882,7 34,7 C19.0883118,7 7,19.0883118 7,34 C7,48.9116882 19.0883118,61 34,61 Z M34.5,45.9995701 C33.9863012,46.031999 33.4617762,45.85323 33.0674401,45.4632632 L15.5458854,28.1358489 C14.8281604,27.4260764 14.8217136,26.268861 15.5314862,25.551136 C15.5362591,25.5463096 15.5410589,25.5415098 15.5458854,25.5367368 C16.2740083,24.8166815 17.4459956,24.8166815 18.1741186,25.5367368 L34.5,41.6817259 L50.8258814,25.5367368 C51.5540044,24.8166815 52.7259917,24.8166815 53.4541146,25.5367368 C54.1718396,26.2465093 54.1782864,27.4037247 53.4685138,28.1214497 C53.4637409,28.1262762 53.4589411,28.131076 53.4541146,28.1358489 L35.9325599,45.4632632 C35.5382238,45.85323 35.0136988,46.031999 34.5,45.9995701 Z" id="Oval" fill="#14F0DD" fill-rule="nonzero"></path>
                </g>
            </g>
        </g>
    </g>
</svg>